<?xml version="1.0" standalone="no"?>
<!DOCTYPE svg PUBLIC "-//W3C//DTD SVG 20010904//EN"
 "http://www.w3.org/TR/2001/REC-SVG-20010904/DTD/svg10.dtd">
<svg version="1.0" xmlns="http://www.w3.org/2000/svg"
 width="499.000000pt" height="499.000000pt" viewBox="0 0 499.000000 499.000000"
 preserveAspectRatio="xMidYMid meet">

<g transform="translate(0.000000,499.000000) scale(0.100000,-0.100000)"
fill="#000000" stroke="none">
<path d="M2303 4897 c-69 -35 -46 -35 -229 5 -42 10 -66 8 -140 -8 -84 -18
-92 -22 -149 -75 l-60 -57 -97 -7 -97 -7 -92 -69 c-50 -38 -112 -92 -136 -121
-25 -29 -48 -57 -52 -61 -5 -4 -47 -25 -94 -45 -77 -33 -90 -43 -124 -92 -33
-47 -65 -72 -218 -172 l-180 -116 -3 -105 -3 -105 -61 -57 -61 -56 7 -77 c4
-42 9 -86 12 -98 4 -16 -8 -31 -60 -70 -71 -54 -72 -57 -54 -146 l12 -58 -72
-67 -72 -68 41 -90 c30 -66 45 -114 54 -180 7 -49 10 -94 8 -99 -3 -4 -44 -26
-91 -48 -48 -21 -88 -41 -90 -43 -2 -2 8 -54 22 -117 14 -62 28 -147 31 -190
l7 -76 56 -40 c51 -36 61 -48 91 -120 31 -73 40 -85 100 -131 36 -27 95 -63
131 -79 l66 -29 44 -102 c43 -98 48 -105 130 -174 47 -40 92 -78 101 -85 14
-11 26 -8 74 12 l56 25 87 -54 c47 -30 94 -55 104 -55 10 0 18 -5 18 -11 0
-23 -22 -49 -41 -49 -22 0 -94 -34 -103 -49 -3 -5 11 -3 31 4 45 16 70 9 91
-23 22 -34 24 -262 3 -335 -15 -51 -63 -111 -83 -105 -15 5 -33 103 -43 231
-4 48 -11 90 -16 93 -15 9 16 -325 36 -393 19 -63 31 -73 97 -82 30 -4 58 -10
64 -14 6 -4 14 -30 18 -59 4 -28 12 -60 17 -71 18 -32 78 -49 189 -54 95 -5
107 -3 130 15 23 19 24 25 25 126 0 105 7 133 20 76 10 -45 151 -251 267 -390
123 -147 256 -276 303 -296 56 -23 250 -30 315 -11 49 15 63 26 131 104 152
176 297 373 352 477 l21 41 7 -55 c11 -84 28 -94 160 -87 111 6 171 23 187 54
5 10 13 42 17 70 4 29 12 56 18 60 6 4 36 10 67 14 37 6 60 15 72 29 27 33 49
155 55 305 6 143 0 179 -11 70 -26 -257 -34 -280 -81 -235 -42 40 -59 111 -60
250 0 143 6 174 39 195 21 14 28 14 74 -1 l50 -17 77 47 c41 25 81 46 88 46 7
0 30 -22 52 -50 22 -27 42 -49 45 -49 3 0 33 44 66 97 l62 97 7 111 c4 61 10
116 14 122 4 7 58 29 119 51 62 21 115 41 118 43 2 3 -6 29 -20 59 -13 30 -27
65 -31 78 l-7 24 108 -7 c59 -4 112 -8 118 -9 18 -3 7 159 -18 284 l-22 112
118 93 c114 91 117 95 112 126 -13 70 -25 117 -61 224 l-37 110 77 103 c48 64
76 109 73 119 -28 92 -28 110 -7 204 12 51 24 103 26 115 5 20 -7 29 -107 80
-62 31 -153 75 -203 98 l-90 41 4 132 3 133 -57 97 c-32 53 -59 98 -60 100 -2
2 -50 8 -179 21 l-88 9 -78 77 c-74 74 -78 80 -95 151 -9 40 -22 79 -29 87
-18 22 -147 108 -154 103 -4 -2 -46 -15 -94 -29 l-86 -24 -65 82 c-75 95 -62
91 -292 102 -124 5 -148 10 -210 36 -38 16 -112 44 -163 61 -94 33 -94 33
-160 18 -64 -15 -68 -14 -147 12 -45 14 -85 26 -91 25 -5 0 -37 -14 -71 -32z
m397 -2212 c99 -25 237 -96 314 -162 196 -165 322 -443 343 -759 3 -56 2 -94
-4 -97 -23 -15 -40 23 -57 127 -24 149 -58 263 -110 371 -122 255 -299 379
-590 415 -189 24 -384 -4 -533 -76 -237 -114 -382 -360 -436 -740 -11 -82 -14
-89 -36 -92 l-24 -4 7 104 c22 352 180 656 419 809 87 56 209 104 304 119 88
14 327 5 403 -15z m-345 -499 c53 -16 108 -52 131 -84 18 -26 44 -213 44 -311
0 -87 -17 -160 -54 -235 -38 -75 -44 -126 -47 -381 -3 -282 -4 -289 -47 -293
-21 -2 -49 6 -77 22 l-45 24 19 -36 c11 -20 42 -54 69 -75 50 -38 77 -80 70
-113 -2 -13 -24 -22 -88 -35 -47 -10 -100 -18 -118 -19 -36 0 -87 22 -95 42
-3 7 -6 1 -6 -13 -2 -58 73 -89 232 -97 111 -5 119 -6 138 -30 64 -82 -65
-153 -168 -92 -70 41 -42 11 65 -70 112 -84 132 -108 132 -161 0 -75 -103
-103 -205 -55 -117 54 -390 402 -474 604 -30 71 -45 122 -36 122 3 0 28 -12
56 -26 28 -14 49 -22 47 -17 -104 209 -158 392 -161 544 -2 89 3 98 80 135 71
35 184 44 264 21 50 -15 139 -77 139 -97 0 -14 -99 -42 -150 -42 -27 0 -67 9
-96 22 -27 12 -61 22 -76 22 -33 -1 -90 -32 -85 -47 5 -17 119 -74 175 -86 76
-18 145 0 222 57 33 24 60 49 60 55 0 26 -64 139 -106 187 -61 69 -82 72 -233
33 -119 -31 -176 -38 -184 -23 -8 13 11 120 33 190 53 165 195 336 311 371 45
14 201 6 264 -13z m-840 -616 c22 -25 31 -122 40 -445 5 -172 3 -225 -7 -245
-15 -28 -65 -55 -119 -65 l-37 -7 -6 59 c-21 211 -36 439 -36 564 0 151 3 155
106 158 29 1 46 -5 59 -19z m2013 -7 c11 -14 13 -52 9 -178 -6 -204 -35 -557
-46 -568 -16 -16 -118 21 -142 51 -21 27 -21 30 -15 257 14 462 17 471 121
462 41 -4 63 -11 73 -24z m-532 -99 c30 -8 54 -20 54 -25 0 -5 -13 -23 -29
-41 -24 -27 -36 -32 -87 -36 -33 -2 -78 1 -101 7 -45 12 -106 57 -98 72 10 15
98 38 153 38 30 1 78 -6 108 -15z m-8 -294 c32 -15 42 -24 42 -42 0 -57 -119
-248 -154 -248 -14 0 -54 42 -78 80 -24 41 -58 138 -58 170 0 65 138 87 248
40z"/>
</g>
</svg>
