<?xml version="1.0" standalone="no"?>
<!DOCTYPE svg PUBLIC "-//W3C//DTD SVG 20010904//EN"
 "http://www.w3.org/TR/2001/REC-SVG-20010904/DTD/svg10.dtd">
<svg version="1.0" xmlns="http://www.w3.org/2000/svg"
 width="500.000000pt" height="500.000000pt" viewBox="0 0 500.000000 500.000000"
 preserveAspectRatio="xMidYMid meet">

<g transform="translate(0.000000,500.000000) scale(0.100000,-0.100000)"
fill="#000000" stroke="none">
<path d="M2450 4894 c-25 -15 -58 -34 -75 -44 -16 -10 -160 -93 -320 -185
-159 -92 -294 -170 -300 -175 -5 -4 -35 -21 -65 -37 -54 -30 -504 -289 -890
-513 -69 -40 -187 -108 -262 -152 l-138 -80 0 -1208 0 -1208 208 -120 c114
-66 223 -129 242 -140 19 -10 175 -100 345 -199 171 -99 330 -191 355 -205 40
-22 184 -106 782 -452 l168 -97 592 342 c326 188 690 398 808 467 118 69 238
137 265 153 28 15 136 77 240 138 l190 110 0 1211 0 1212 -225 130 c-124 72
-240 139 -257 149 -111 64 -747 431 -778 449 -16 10 -176 102 -355 205 -179
103 -338 195 -355 205 -95 55 -121 70 -125 70 -3 0 -25 -12 -50 -26z m902
-1328 c24 -35 32 -93 33 -232 l0 -151 44 -57 c94 -125 126 -235 125 -426 -2
-256 -57 -416 -187 -540 -79 -76 -245 -140 -444 -170 l-71 -11 42 -42 c69 -69
78 -115 83 -417 2 -164 8 -263 16 -278 6 -13 33 -39 59 -58 26 -20 48 -42 48
-49 0 -31 -119 -30 -186 1 -18 7 -46 30 -63 49 -26 30 -31 44 -32 88 -6 374
-17 477 -50 477 -12 0 -11 -484 1 -534 5 -22 23 -60 40 -84 58 -82 23 -114
-72 -67 -69 35 -96 60 -122 115 -19 41 -21 66 -24 318 -4 245 -6 272 -21 272
-15 0 -16 -24 -17 -254 -2 -279 -11 -337 -61 -397 -27 -32 -117 -79 -152 -79
-10 0 -24 7 -31 15 -11 13 -10 20 8 43 55 69 55 68 60 372 4 267 3 284 -13
269 -28 -27 -35 -85 -35 -300 0 -197 -1 -208 -22 -239 -27 -40 -98 -78 -162
-86 -52 -7 -96 1 -96 18 0 7 27 37 60 68 l60 56 0 155 0 156 -127 0 c-119 -1
-132 1 -184 26 -73 35 -128 95 -178 196 -41 80 -83 131 -153 185 -45 34 -48
53 -11 67 61 23 157 -20 220 -99 65 -81 127 -143 158 -160 41 -22 206 -22 255
0 29 12 37 23 47 59 7 26 29 64 52 91 l40 45 -77 12 c-196 31 -366 106 -466
206 -117 118 -173 264 -183 480 -9 212 13 299 110 428 l44 57 -14 73 c-18 89
-11 198 18 285 20 59 22 62 53 62 82 0 273 -76 375 -149 22 -16 27 -16 95 2
60 16 108 20 306 21 165 1 256 -3 306 -13 68 -13 73 -13 100 6 54 38 226 115
287 128 63 14 96 11 109 -9z"/>
</g>
</svg>
