<?xml version="1.0" standalone="no"?>
<!DOCTYPE svg PUBLIC "-//W3C//DTD SVG 20010904//EN"
 "http://www.w3.org/TR/2001/REC-SVG-20010904/DTD/svg10.dtd">
<svg version="1.0" xmlns="http://www.w3.org/2000/svg"
 width="500.000000pt" height="500.000000pt" viewBox="0 0 500.000000 500.000000"
 preserveAspectRatio="xMidYMid meet">

<g transform="translate(0.000000,500.000000) scale(0.100000,-0.100000)"
fill="#000000" stroke="none">
<path d="M2345 3990 c-330 -28 -679 -202 -911 -454 -354 -384 -474 -938 -309
-1430 49 -147 93 -237 172 -352 l41 -61 -33 -134 c-74 -300 -126 -506 -135
-534 -5 -16 -12 -48 -16 -69 -5 -31 -4 -38 7 -34 8 3 75 29 149 58 74 28 209
81 300 116 290 114 316 124 329 124 6 0 51 -13 99 -29 165 -56 238 -66 457
-65 204 0 257 7 430 57 121 34 314 134 443 229 94 70 246 231 315 336 113 170
174 314 219 513 31 140 33 446 4 579 -63 289 -187 521 -386 720 -119 120 -130
129 -231 197 -204 138 -435 215 -693 233 -78 5 -145 9 -151 8 -5 0 -50 -4
-100 -8z m365 -65 c206 -34 365 -97 543 -214 263 -172 459 -431 555 -731 54
-169 57 -191 57 -425 0 -211 -1 -225 -29 -330 -153 -580 -641 -997 -1221
-1044 -210 -17 -430 12 -600 78 l-75 29 -202 -80 c-112 -43 -270 -106 -353
-138 -82 -33 -151 -58 -153 -56 -1 2 35 158 82 346 l84 342 -53 81 c-160 248
-235 493 -235 771 0 196 24 322 94 511 24 64 108 219 158 292 175 255 493 473
793 544 166 39 403 50 555 24z"/>
<path d="M2335 3723 c-106 -13 -239 -52 -353 -104 -193 -88 -401 -281 -512
-474 -234 -410 -205 -926 74 -1294 23 -29 47 -61 53 -70 11 -14 2 -54 -47
-226 -33 -114 -58 -210 -55 -213 2 -2 75 24 162 58 87 34 185 73 218 85 l61
23 75 -33 c316 -139 660 -137 974 4 243 110 470 341 585 595 115 253 131 582
41 856 -51 155 -159 328 -281 450 -181 182 -401 297 -640 336 -77 13 -279 17
-355 7z m-123 -535 c9 -7 24 -38 33 -68 10 -30 38 -102 62 -160 23 -58 43
-118 43 -135 0 -23 -16 -47 -66 -102 -64 -72 -65 -72 -50 -101 60 -115 378
-423 437 -422 8 0 44 30 81 65 48 46 76 65 94 65 22 0 232 -77 342 -125 l32
-15 0 -84 0 -85 -55 -60 c-71 -76 -139 -111 -215 -111 -232 0 -502 134 -736
365 -215 212 -334 456 -338 690 -1 84 2 105 19 130 41 63 80 109 118 136 35
26 49 29 112 29 42 0 78 -5 87 -12z"/>
</g>
</svg>
