<?xml version="1.0" standalone="no"?>
<!DOCTYPE svg PUBLIC "-//W3C//DTD SVG 20010904//EN"
 "http://www.w3.org/TR/2001/REC-SVG-20010904/DTD/svg10.dtd">
<svg version="1.0" xmlns="http://www.w3.org/2000/svg"
 width="474.000000pt" height="474.000000pt" viewBox="0 0 474.000000 474.000000"
 preserveAspectRatio="xMidYMid meet">

<g transform="translate(0.000000,474.000000) scale(0.100000,-0.100000)"
fill="#000000" stroke="none">
<path d="M2289 4736 c-3 -3 -66 -10 -140 -15 -635 -46 -1277 -405 -1667 -933
-222 -300 -357 -601 -429 -952 -23 -117 -27 -159 -30 -392 -7 -380 14 -542
105 -819 112 -343 329 -685 601 -947 381 -367 822 -581 1335 -649 145 -19 604
-7 742 20 398 75 766 251 1086 520 245 206 473 501 614 795 76 159 106 242
149 411 54 210 68 359 62 640 -7 328 -43 542 -134 784 -104 281 -314 610 -522
820 -405 409 -936 663 -1466 702 -71 5 -168 12 -215 15 -47 4 -88 4 -91 0z
m1262 -1101 c23 -16 51 -47 62 -68 19 -37 19 -63 18 -1180 -2 -1278 4 -1179
-74 -1241 l-39 -31 -1152 0 -1152 0 -43 28 c-27 18 -50 44 -62 70 -18 40 -19
83 -19 1160 0 776 3 1131 11 1161 13 52 60 102 115 121 33 12 226 14 1166 12
l1126 -2 43 -30z"/>
<path d="M1596 3215 c-80 -28 -126 -96 -126 -186 0 -111 78 -179 204 -179 76
0 110 11 149 48 42 39 57 75 57 132 0 144 -141 236 -284 185z"/>
<path d="M2673 2681 c-67 -23 -126 -64 -170 -118 -20 -24 -39 -43 -44 -43 -5
0 -9 34 -9 75 l0 74 -37 7 c-37 7 -310 -3 -325 -12 -4 -3 -7 -256 -5 -562 l2
-557 180 0 180 0 5 355 5 355 28 48 c15 26 47 60 69 75 36 23 52 27 113 27 90
0 134 -26 171 -101 l25 -52 1 -328 c0 -181 2 -341 5 -357 l5 -27 176 2 176 3
8 30 c11 40 1 666 -12 750 -38 238 -194 375 -425 375 -41 -1 -92 -8 -122 -19z"/>
<path d="M1492 2108 l3 -563 180 0 180 0 0 560 0 560 -183 3 -182 2 2 -562z"/>
</g>
</svg>
