<?xml version="1.0" standalone="no"?>
<!DOCTYPE svg PUBLIC "-//W3C//DTD SVG 20010904//EN"
 "http://www.w3.org/TR/2001/REC-SVG-20010904/DTD/svg10.dtd">
<svg version="1.0" xmlns="http://www.w3.org/2000/svg"
 width="500.000000pt" height="500.000000pt" viewBox="0 0 500.000000 500.000000"
 preserveAspectRatio="xMidYMid meet">

<g transform="translate(0.000000,500.000000) scale(0.100000,-0.100000)"
fill="#000000" stroke="none">
<path d="M2319 3989 c-256 -27 -546 -150 -754 -319 -276 -226 -450 -506 -531
-855 -25 -108 -27 -138 -28 -310 0 -159 4 -207 23 -295 65 -303 186 -532 400
-754 216 -222 468 -360 785 -428 147 -31 417 -31 568 0 310 65 552 194 774
416 222 222 352 464 416 774 31 152 31 422 0 568 -70 325 -207 572 -443 799
-322 309 -752 453 -1210 404z m763 -547 c140 -47 269 -159 332 -287 55 -112
56 -128 56 -666 0 -476 -1 -500 -21 -565 -47 -154 -149 -275 -291 -343 -45
-22 -110 -44 -142 -50 -95 -17 -964 -14 -1047 3 -202 43 -370 204 -424 406
-21 80 -22 1029 0 1109 56 211 233 373 448 410 29 5 270 8 537 7 473 -2 487
-2 552 -24z"/>
<path d="M1949 3257 c-98 -41 -160 -97 -206 -187 l-28 -55 0 -525 0 -525 28
-57 c37 -76 126 -158 203 -187 59 -21 65 -22 569 -19 502 3 511 3 557 25 55
26 131 93 164 144 53 85 55 106 52 640 l-3 494 -27 57 c-37 79 -98 142 -177
181 l-66 32 -505 2 -505 3 -56 -23z m1131 -142 c118 -61 43 -244 -87 -214 -46
10 -71 34 -83 80 -28 102 76 183 170 134z m-428 -145 c317 -98 452 -482 267
-759 -252 -378 -831 -257 -916 191 -46 244 97 484 337 565 87 30 221 31 312 3z"/>
<path d="M2437 2810 c-61 -11 -150 -63 -188 -112 -51 -63 -72 -125 -73 -208
-1 -66 3 -84 32 -142 18 -36 49 -81 69 -99 133 -116 330 -112 452 10 159 159
114 427 -90 524 -62 29 -133 38 -202 27z"/>
</g>
</svg>
